<?xml version="1.0" encoding="UTF-8" standalone="no"?>
<svg width="297.011mm" height="209.973mm" viewBox="0 0 3508 2480" xmlns="http://www.w3.org/2000/svg" xmlns:xlink="http://www.w3.org/1999/xlink" version="1.2" baseProfile="tiny">
<defs>
</defs>
<g fill="none" stroke="black" stroke-width="1" fill-rule="evenodd" stroke-linecap="square" stroke-linejoin="bevel">

<!-- White background -->
<g fill="none" fill-opacity="1" stroke="none" transform="matrix(1,0,0,1,0,0)" font-family="Arial" font-size="12" font-weight="400" font-style="normal">
<rect x="0" y="0" width="3508" height="2480"/>
</g>

<!-- Shape 1 (Top left polygon) - Filled with lightblue -->
<path fill="#000000" stroke="#000000" stroke-width="0" stroke-linecap="round" stroke-linejoin="bevel" 
d="M 1723.4,783.251 L 1705.15,727.093 L 1657.38,692.386 L 1566.15,411.598 L 1583.5,387.712 L 1965.67,665.371 L 2075.15,1002.32 L 2057.79,1026.2 Z"/>

<!-- Shape 2 (Top center-right polygon) - Filled with lightgreen -->
<path fill="#000000" stroke="#000000" stroke-width="0" stroke-linecap="round" stroke-linejoin="bevel" 
d="M 2357.7,613.716 L 2387.06,616.802 L 2337.69,1086.6 L 2100.62,1349.88 L 2071.26,1346.8 L 2114.47,935.726 L 2153.98,891.845 L 2160.15,833.121 Z"/>

<!-- Shape 3 (Middle left polygon) - Filled with lavender -->
<path fill="#000000" stroke="#000000" stroke-width="0" stroke-linecap="round" stroke-linejoin="bevel" 
d="M 1414.87,776.936 L 1761.41,850.596 L 1773.42,877.567 L 1395.82,1045.68 L 1338.06,1033.41 L 1284.12,1057.43 L 995.334,996.042 L 983.325,969.07 Z"/>

<!-- Shape 4 (Bottom left polygon) - Filled with peachpuff -->
<path fill="#000000" stroke="#000000" stroke-width="0" stroke-linecap="round" stroke-linejoin="bevel" 
d="M 1236.08,1309.73 L 1473.15,1046.44 L 1502.51,1049.53 L 1459.3,1460.59 L 1419.79,1504.48 L 1413.62,1563.2 L 1216.07,1782.6 L 1186.71,1779.52 Z"/>

<!-- Shape 5 (Bottom right polygon) - Filled with lightyellow -->
<path fill="#000000" stroke="#000000" stroke-width="0" stroke-linecap="round" stroke-linejoin="bevel" 
d="M 2578.44,1400.28 L 2590.44,1427.25 L 2158.9,1619.39 L 1812.36,1545.73 L 1800.35,1518.75 L 2177.95,1350.64 L 2235.71,1362.91 L 2289.65,1338.9 Z"/>

<!-- Additional shape (small center-right polygon) - Filled with pink -->
<path fill="#000000" stroke="#000000" stroke-width="0" stroke-linecap="round" stroke-linejoin="bevel" 
d="M 1498.62,1394 L 1515.98,1370.12 L 1850.37,1613.07 L 1868.62,1669.23 L 1916.39,1703.94 L 2007.62,1984.72 L 1990.27,2008.61 L 1608.1,1730.95 Z"/>

<!-- Original black lines (now on top of the colored shapes) -->
<g fill="none" stroke="#000000" stroke-opacity="1" stroke-width="0" stroke-linecap="round" stroke-linejoin="bevel" transform="matrix(1,0,0,1,0,0)" font-family="Arial" font-size="12" font-weight="400" font-style="normal">
<polyline points="1723.4,783.251 1705.15,727.093 " />
<polyline points="1705.15,727.093 1657.38,692.386 " />
<polyline points="1657.38,692.386 1566.15,411.598 " />
<polyline points="1566.15,411.598 1583.5,387.712 " />
<polyline points="1583.5,387.712 1965.67,665.371 " />
<polyline points="1965.67,665.371 2075.15,1002.32 " />
<polyline points="2075.15,1002.32 2057.79,1026.2 " />
<polyline points="2057.79,1026.2 1723.4,783.251 " />
<polyline points="2387.06,616.802 2337.69,1086.6 " />
<polyline points="2337.69,1086.6 2100.62,1349.88 " />
<polyline points="2100.62,1349.88 2071.26,1346.8 " />
<polyline points="2071.26,1346.8 2114.47,935.726 " />
<polyline points="2114.47,935.726 2153.98,891.845 " />
<polyline points="2153.98,891.845 2160.15,833.121 " />
<polyline points="2357.7,613.716 2387.06,616.802 " />
<polyline points="2160.15,833.121 2357.7,613.716 " />
<polyline points="1284.12,1057.43 995.334,996.042 " />
<polyline points="995.334,996.042 983.325,969.07 " />
<polyline points="983.325,969.07 1414.87,776.936 " />
<polyline points="1414.87,776.936 1761.41,850.596 " />
<polyline points="1395.82,1045.68 1338.06,1033.41 " />
<polyline points="1338.06,1033.41 1284.12,1057.43 " />
<polyline points="1761.41,850.596 1773.42,877.567 " />
<polyline points="1773.42,877.567 1395.82,1045.68 " />
<polyline points="1413.62,1563.2 1216.07,1782.6 " />
<polyline points="1216.07,1782.6 1186.71,1779.52 " />
<polyline points="1186.71,1779.52 1236.08,1309.73 " />
<polyline points="1236.08,1309.73 1473.15,1046.44 " />
<polyline points="1473.15,1046.44 1502.51,1049.53 " />
<polyline points="1502.51,1049.53 1459.3,1460.59 " />
<polyline points="1459.3,1460.59 1419.79,1504.48 " />
<polyline points="1419.79,1504.48 1413.62,1563.2 " />
<polyline points="2578.44,1400.28 2590.44,1427.25 " />
<polyline points="2590.44,1427.25 2158.9,1619.39 " />
<polyline points="2158.9,1619.39 1812.36,1545.73 " />
<polyline points="1812.36,1545.73 1800.35,1518.75 " />
<polyline points="1800.35,1518.75 2177.95,1350.64 " />
<polyline points="2177.95,1350.64 2235.71,1362.91 " />
<polyline points="2235.71,1362.91 2289.65,1338.9 " />
<polyline points="2289.65,1338.9 2578.44,1400.28 " />
<polyline points="1916.39,1703.94 2007.62,1984.72 " />
<polyline points="2007.62,1984.72 1990.27,2008.61 " />
<polyline points="1990.27,2008.61 1608.1,1730.95 " />
<polyline points="1498.62,1394 1515.98,1370.12 " />
<polyline points="1515.98,1370.12 1850.37,1613.07 " />
<polyline points="1608.1,1730.95 1498.62,1394 " />
<polyline points="1850.37,1613.07 1868.62,1669.23 " />
<polyline points="1868.62,1669.23 1916.39,1703.94 " />
</g>
</g>
</svg>